<svg data-v-fde0c5aa="" xmlns="http://www.w3.org/2000/svg" viewBox="30 130 240 40" class="iconLeft" aria-labelledby="logoTitle"><title id="logoTitle">Ian McCall Codes</title><!----><defs data-v-fde0c5aa=""><!----></defs><rect data-v-fde0c5aa="" fill="#A1CA5A" x="0" y="0" width="300px" height="300px" class="logo-background-square"></rect><defs data-v-fde0c5aa=""><!----></defs><g data-v-fde0c5aa="" id="3ed7fc2b-9279-4c1d-81d4-09907376da62" fill="#FFFFFF" transform="matrix(1.4088970865002513,0,0,1.4088970865002513,72.0390259648316,137.96801927094026)"><path d="M6.97 5.53L4.97 5.53L4.97 12.67L6.97 12.67L6.97 14L1.40 14L1.40 12.67L3.39 12.67L3.39 5.53L1.40 5.53L1.40 4.20L6.97 4.20L6.97 5.53ZM16.42 13.31L15.41 14.28L14.53 13.41L14.53 13.41Q13.61 14.15 12.31 14.15L12.31 14.15L12.31 14.15Q10.81 14.15 10.09 13.59L10.09 13.59L10.09 13.59Q9.38 13.03 9.38 11.86L9.38 11.86L9.38 11.86Q9.38 10.68 10.16 10.13L10.16 10.13L10.16 10.13Q10.93 9.58 12.59 9.58L12.59 9.58L14.01 9.58L14.01 9.21L14.01 9.21Q14.01 8.65 13.68 8.41L13.68 8.41L13.68 8.41Q13.34 8.16 12.59 8.16L12.59 8.16L12.59 8.16Q11.91 8.16 11.49 8.31L11.49 8.31L11.49 8.31Q11.06 8.46 10.79 8.76L10.79 8.76L9.79 7.78L9.79 7.78Q10.22 7.35 10.98 7.09L10.98 7.09L10.98 7.09Q11.73 6.83 12.70 6.83L12.70 6.83L12.70 6.83Q14.04 6.83 14.81 7.36L14.81 7.36L14.81 7.36Q15.58 7.88 15.58 8.85L15.58 8.85L15.58 12.47L16.42 13.31ZM10.93 11.86L10.93 11.86Q10.93 12.39 11.28 12.61L11.28 12.61L11.28 12.61Q11.63 12.84 12.54 12.84L12.54 12.84L12.54 12.84Q12.98 12.84 13.37 12.68L13.37 12.68L13.37 12.68Q13.76 12.53 14.01 12.29L14.01 12.29L14.01 10.82L13.06 10.82L13.06 10.82Q12.14 10.82 11.69 10.92L11.69 10.92L11.69 10.92Q11.24 11.02 11.09 11.23L11.09 11.23L11.09 11.23Q10.93 11.44 10.93 11.86L10.93 11.86ZM21.70 6.85L21.70 6.85Q22.95 6.85 23.60 7.62L23.60 7.62L23.60 7.62Q24.26 8.39 24.26 10.05L24.26 10.05L24.26 14L22.69 14L22.69 10.33L22.69 10.33Q22.69 9.53 22.60 9.09L22.60 9.09L22.60 9.09Q22.51 8.64 22.24 8.41L22.24 8.41L22.24 8.41Q21.97 8.19 21.42 8.19L21.42 8.19L21.42 8.19Q20.76 8.19 20.33 8.54L20.33 8.54L20.33 8.54Q19.89 8.89 19.67 9.34L19.67 9.34L19.67 14L18.10 14L18.10 9.17L18.10 7L19.26 7L19.26 7Q19.29 7.07 19.36 7.31L19.36 7.31L19.36 7.31Q19.42 7.55 19.52 7.84L19.52 7.84L19.52 7.84Q19.88 7.36 20.43 7.10L20.43 7.10L20.43 7.10Q20.99 6.85 21.70 6.85L21.70 6.85ZM41.52 14L39.96 14L39.77 6.75L39.68 7.50L38.50 13.05L37.10 13.05L35.92 7.49L35.83 6.73L35.64 14L34.08 14L34.64 4.20L36.50 4.20L37.72 9.91L37.80 10.77L37.88 9.91L39.10 4.20L40.96 4.20L41.52 14ZM49.52 12.57L49.52 12.57Q48.59 14.15 46.72 14.15L46.72 14.15L46.72 14.15Q45.23 14.15 44.29 13.27L44.29 13.27L44.29 13.27Q43.34 12.38 43.34 10.49L43.34 10.49L43.34 10.49Q43.34 8.58 44.28 7.71L44.28 7.71L44.28 7.71Q45.22 6.83 46.72 6.83L46.72 6.83L46.72 6.83Q47.63 6.83 48.34 7.22L48.34 7.22L48.34 7.22Q49.04 7.62 49.52 8.51L49.52 8.51L48.09 9.28L48.09 9.28Q47.64 8.18 46.68 8.18L46.68 8.18L46.68 8.18Q45.91 8.18 45.44 8.72L45.44 8.72L45.44 8.72Q44.98 9.27 44.98 10.49L44.98 10.49L44.98 10.49Q44.98 11.69 45.44 12.25L45.44 12.25L45.44 12.25Q45.91 12.81 46.68 12.81L46.68 12.81L46.68 12.81Q47.59 12.81 48.09 11.83L48.09 11.83L49.52 12.57ZM58.10 12.31L58.10 12.31Q57.13 14.15 54.87 14.15L54.87 14.15L54.87 14.15Q53.10 14.15 52.16 13.03L52.16 13.03L52.16 13.03Q51.21 11.91 51.21 9.13L51.21 9.13L51.21 9.13Q51.21 6.34 52.16 5.23L52.16 5.23L52.16 5.23Q53.10 4.12 54.87 4.12L54.87 4.12L54.87 4.12Q55.99 4.12 56.78 4.54L56.78 4.54L56.78 4.54Q57.57 4.97 58.06 5.89L58.06 5.89L56.63 6.66L56.63 6.66Q56.35 6.06 55.90 5.76L55.90 5.76L55.90 5.76Q55.45 5.46 54.87 5.46L54.87 5.46L54.87 5.46Q54.21 5.46 53.77 5.78L53.77 5.78L53.77 5.78Q53.34 6.09 53.09 6.89L53.09 6.89L53.09 6.89Q52.85 7.70 52.85 9.13L52.85 9.13L52.85 9.13Q52.85 10.57 53.09 11.38L53.09 11.38L53.09 11.38Q53.34 12.18 53.77 12.49L53.77 12.49L53.77 12.49Q54.21 12.81 54.87 12.81L54.87 12.81L54.87 12.81Q55.48 12.81 55.93 12.48L55.93 12.48L55.93 12.48Q56.38 12.15 56.66 11.56L56.66 11.56L58.10 12.31ZM66.82 13.31L65.81 14.28L64.93 13.41L64.93 13.41Q64.01 14.15 62.71 14.15L62.71 14.15L62.71 14.15Q61.21 14.15 60.49 13.59L60.49 13.59L60.49 13.59Q59.78 13.03 59.78 11.86L59.78 11.86L59.78 11.86Q59.78 10.68 60.56 10.13L60.56 10.13L60.56 10.13Q61.33 9.58 62.99 9.58L62.99 9.58L64.41 9.58L64.41 9.21L64.41 9.21Q64.41 8.65 64.08 8.41L64.08 8.41L64.08 8.41Q63.74 8.16 62.99 8.16L62.99 8.16L62.99 8.16Q62.31 8.16 61.89 8.31L61.89 8.31L61.89 8.31Q61.46 8.46 61.19 8.76L61.19 8.76L60.19 7.78L60.19 7.78Q60.62 7.35 61.38 7.09L61.38 7.09L61.38 7.09Q62.13 6.83 63.10 6.83L63.10 6.83L63.10 6.83Q64.44 6.83 65.21 7.36L65.21 7.36L65.21 7.36Q65.98 7.88 65.98 8.85L65.98 8.85L65.98 12.47L66.82 13.31ZM61.33 11.86L61.33 11.86Q61.33 12.39 61.68 12.61L61.68 12.61L61.68 12.61Q62.03 12.84 62.94 12.84L62.94 12.84L62.94 12.84Q63.38 12.84 63.77 12.68L63.77 12.68L63.77 12.68Q64.16 12.53 64.41 12.29L64.41 12.29L64.41 10.82L63.46 10.82L63.46 10.82Q62.54 10.82 62.09 10.92L62.09 10.92L62.09 10.92Q61.64 11.02 61.49 11.23L61.49 11.23L61.49 11.23Q61.33 11.44 61.33 11.86L61.33 11.86ZM73.04 12.89L73.04 12.89Q73.35 12.89 73.81 12.82L73.81 12.82L73.81 12.82Q74.27 12.75 74.48 12.71L74.48 12.71L74.48 14L74.48 14Q73.56 14.15 72.74 14.15L72.74 14.15L72.74 14.15Q70.56 14.15 70.56 12.29L70.56 12.29L70.56 4.13L68.43 4.13L68.43 2.80L72.13 2.80L72.13 11.87L72.13 11.87Q72.13 12.50 72.39 12.70L72.39 12.70L72.39 12.70Q72.65 12.89 73.04 12.89L73.04 12.89ZM81.44 12.89L81.44 12.89Q81.75 12.89 82.21 12.82L82.21 12.82L82.21 12.82Q82.67 12.75 82.88 12.71L82.88 12.71L82.88 14L82.88 14Q81.96 14.15 81.14 14.15L81.14 14.15L81.14 14.15Q78.96 14.15 78.96 12.29L78.96 12.29L78.96 4.13L76.83 4.13L76.83 2.80L80.53 2.80L80.53 11.87L80.53 11.87Q80.53 12.50 80.79 12.70L80.79 12.70L80.79 12.70Q81.05 12.89 81.44 12.89L81.44 12.89ZM100.10 12.31L100.10 12.31Q99.13 14.15 96.87 14.15L96.87 14.15L96.87 14.15Q95.10 14.15 94.16 13.03L94.16 13.03L94.16 13.03Q93.21 11.91 93.21 9.13L93.21 9.13L93.21 9.13Q93.21 6.34 94.16 5.23L94.16 5.23L94.16 5.23Q95.10 4.12 96.87 4.12L96.87 4.12L96.87 4.12Q97.99 4.12 98.78 4.54L98.78 4.54L98.78 4.54Q99.57 4.97 100.06 5.89L100.06 5.89L98.63 6.66L98.63 6.66Q98.35 6.06 97.90 5.76L97.90 5.76L97.90 5.76Q97.45 5.46 96.87 5.46L96.87 5.46L96.87 5.46Q96.21 5.46 95.77 5.78L95.77 5.78L95.77 5.78Q95.34 6.09 95.10 6.89L95.10 6.89L95.10 6.89Q94.85 7.70 94.85 9.13L94.85 9.13L94.85 9.13Q94.85 10.57 95.10 11.38L95.10 11.38L95.10 11.38Q95.34 12.18 95.77 12.49L95.77 12.49L95.77 12.49Q96.21 12.81 96.87 12.81L96.87 12.81L96.87 12.81Q97.48 12.81 97.93 12.48L97.93 12.48L97.93 12.48Q98.38 12.15 98.66 11.56L98.66 11.56L100.10 12.31ZM105.04 14.15L105.04 14.15Q103.63 14.15 102.69 13.27L102.69 13.27L102.69 13.27Q101.75 12.38 101.75 10.49L101.75 10.49L101.75 10.49Q101.75 9.21 102.21 8.39L102.21 8.39L102.21 8.39Q102.66 7.57 103.40 7.20L103.40 7.20L103.40 7.20Q104.15 6.83 105.04 6.83L105.04 6.83L105.04 6.83Q105.94 6.83 106.67 7.20L106.67 7.20L106.67 7.20Q107.41 7.57 107.86 8.39L107.86 8.39L107.86 8.39Q108.32 9.21 108.32 10.49L108.32 10.49L108.32 10.49Q108.32 11.77 107.86 12.59L107.86 12.59L107.86 12.59Q107.41 13.41 106.67 13.78L106.67 13.78L106.67 13.78Q105.94 14.15 105.04 14.15L105.04 14.15ZM105.04 12.81L105.04 12.81Q105.70 12.81 106.18 12.27L106.18 12.27L106.18 12.27Q106.67 11.73 106.67 10.49L106.67 10.49L106.67 10.49Q106.67 9.25 106.18 8.71L106.18 8.71L106.18 8.71Q105.70 8.18 105.04 8.18L105.04 8.18L105.04 8.18Q104.37 8.18 103.89 8.71L103.89 8.71L103.89 8.71Q103.40 9.24 103.40 10.49L103.40 10.49L103.40 10.49Q103.40 11.73 103.89 12.27L103.89 12.27L103.89 12.27Q104.37 12.81 105.04 12.81L105.04 12.81ZM114.73 2.80L116.30 2.80L116.30 14L115.07 14L114.80 13.20L114.80 13.20Q114.06 14.15 112.87 14.15L112.87 14.15L112.87 14.15Q111.45 14.15 110.68 13.25L110.68 13.25L110.68 13.25Q109.90 12.35 109.90 10.49L109.90 10.49L109.90 10.49Q109.90 8.61 110.61 7.73L110.61 7.73L110.61 7.73Q111.33 6.85 112.73 6.85L112.73 6.85L112.73 6.85Q113.34 6.85 113.86 7.08L113.86 7.08L113.86 7.08Q114.37 7.31 114.73 7.71L114.73 7.71L114.73 2.80ZM113.18 12.81L113.18 12.81Q113.75 12.81 114.16 12.47L114.16 12.47L114.16 12.47Q114.56 12.14 114.73 11.65L114.73 11.65L114.73 9.42L114.73 9.42Q114.51 8.92 114.08 8.55L114.08 8.55L114.08 8.55Q113.65 8.19 113.04 8.19L113.04 8.19L113.04 8.19Q112.15 8.19 111.81 8.71L111.81 8.71L111.81 8.71Q111.47 9.24 111.47 10.49L111.47 10.49L111.47 10.49Q111.47 11.70 111.87 12.26L111.87 12.26L111.87 12.26Q112.28 12.81 113.18 12.81L113.18 12.81ZM122.18 6.83L122.18 6.83Q123.68 6.83 124.47 7.82L124.47 7.82L124.47 7.82Q125.27 8.81 125.27 10.51L125.27 10.51L125.27 10.51Q125.27 10.81 125.26 10.95L125.26 10.95L120.44 10.95L120.44 10.95Q120.51 11.96 120.95 12.38L120.95 12.38L120.95 12.38Q121.39 12.81 122.15 12.81L122.15 12.81L122.15 12.81Q123.20 12.81 123.73 11.94L123.73 11.94L125.06 12.67L125.06 12.67Q124.60 13.41 123.82 13.78L123.82 13.78L123.82 13.78Q123.03 14.15 122.14 14.15L122.14 14.15L122.14 14.15Q121.21 14.15 120.46 13.76L120.46 13.76L120.46 13.76Q119.71 13.37 119.27 12.54L119.27 12.54L119.27 12.54Q118.83 11.72 118.83 10.49L118.83 10.49L118.83 10.49Q118.83 9.24 119.28 8.42L119.28 8.42L119.28 8.42Q119.73 7.60 120.48 7.22L120.48 7.22L120.48 7.22Q121.24 6.83 122.18 6.83L122.18 6.83ZM120.48 9.74L123.68 9.74L123.68 9.74Q123.61 8.96 123.24 8.56L123.24 8.56L123.24 8.56Q122.86 8.16 122.15 8.16L122.15 8.16L122.15 8.16Q121.48 8.16 121.04 8.53L121.04 8.53L121.04 8.53Q120.61 8.89 120.48 9.74L120.48 9.74ZM130.23 14.15L130.23 14.15Q129.22 14.15 128.32 13.83L128.32 13.83L128.32 13.83Q127.43 13.51 126.99 12.87L126.99 12.87L128.28 12.03L128.28 12.03Q128.49 12.39 129.08 12.61L129.08 12.61L129.08 12.61Q129.67 12.84 130.28 12.84L130.28 12.84L130.28 12.84Q130.93 12.84 131.37 12.64L131.37 12.64L131.37 12.64Q131.81 12.45 131.81 12.04L131.81 12.04L131.81 12.04Q131.81 11.75 131.54 11.55L131.54 11.55L131.54 11.55Q131.28 11.35 130.99 11.27L130.99 11.27L130.99 11.27Q130.70 11.19 130.17 11.05L130.17 11.05L130.17 11.05Q129.12 10.81 128.25 10.29L128.25 10.29L128.25 10.29Q127.39 9.77 127.39 8.76L127.39 8.76L127.39 8.76Q127.39 8.12 127.83 7.69L127.83 7.69L127.83 7.69Q128.28 7.25 128.96 7.04L128.96 7.04L128.96 7.04Q129.64 6.83 130.35 6.83L130.35 6.83L130.35 6.83Q131.21 6.83 131.99 7.15L131.99 7.15L131.99 7.15Q132.76 7.46 133.18 8.12L133.18 8.12L131.98 8.90L131.98 8.90Q131.74 8.53 131.26 8.33L131.26 8.33L131.26 8.33Q130.79 8.13 130.33 8.13L130.33 8.13L130.33 8.13Q129.79 8.13 129.38 8.32L129.38 8.32L129.38 8.32Q128.97 8.50 128.97 8.85L128.97 8.85L128.97 8.85Q128.97 9.17 129.35 9.35L129.35 9.35L129.35 9.35Q129.74 9.53 130.35 9.70L130.35 9.70L130.66 9.79L130.66 9.79Q131.39 9.98 131.94 10.20L131.94 10.20L131.94 10.20Q132.50 10.42 132.95 10.86L132.95 10.86L132.95 10.86Q133.41 11.31 133.41 12.00L133.41 12.00L133.41 12.00Q133.41 12.71 132.95 13.20L132.95 13.20L132.95 13.20Q132.50 13.69 131.78 13.92L131.78 13.92L131.78 13.92Q131.05 14.15 130.23 14.15L130.23 14.15Z"></path></g><defs data-v-fde0c5aa=""><!----></defs><g data-v-fde0c5aa="" id="45a94d98-9edb-45b2-a8a1-bafd9e4242b3" stroke="none" fill="#F73289" transform="matrix(0.2956448527785796,0,0,0.2956448527785796,37.20172142333892,136.6959821183745)"><path d="M38.182 57.753L20.18 47.91v-5.455l18.002-9.803v6.422l-12.557 6.039 12.557 6.266zM39.848 62.08l6.503-34.162h3.785L43.56 62.08zM51.8 57.78V51.4l12.572-6.219L51.8 39.028v-6.332L69.82 42.5v5.41z"></path><path d="M44.999 86.031L9.465 65.517V24.484L44.999 3.969l35.536 20.516v41.029L44.999 86.031zM13.07 63.434l31.929 18.434L76.93 63.434V26.566L44.999 8.131 13.07 26.565v36.869z"></path></g><!----></svg>